<svg width="52" height="52" viewBox="0 0 52 52" fill="none" xmlns="http://www.w3.org/2000/svg">
<path d="M52 26C52 40.3594 40.3594 52 26 52C11.6406 52 0 40.3594 0 26C0 11.6406 11.6406 0 26 0C40.3594 0 52 11.6406 52 26Z" fill="url(#paint0_linear_81_329)" fill-opacity="0.2"/>
<g clip-path="url(#clip0_81_329)">
<path d="M32.2061 11H19.2979C18.5559 11 17.8442 11.2948 17.3195 11.8195C16.7948 12.3442 16.5 13.0558 16.5 13.7979V38.2021C16.4989 38.5703 16.5704 38.9351 16.7105 39.2755C16.8505 39.616 17.0564 39.9255 17.3164 40.1862C17.5763 40.447 17.8851 40.6538 18.2251 40.795C18.5652 40.9362 18.9297 41.0088 19.2979 41.0088H32.2061C32.5735 41.0088 32.9374 40.9365 33.2768 40.7958C33.6163 40.6552 33.9247 40.4492 34.1845 40.1893C34.4443 39.9295 34.6504 39.6211 34.791 39.2816C34.9316 38.9422 35.004 38.5784 35.004 38.2109V13.7979C35.004 13.4305 34.9316 13.0666 34.791 12.7272C34.6504 12.3877 34.4443 12.0793 34.1845 11.8195C33.9247 11.5597 33.6163 11.3536 33.2768 11.213C32.9374 11.0724 32.5735 11 32.2061 11ZM25.7674 39.323C25.3909 39.3239 25.0225 39.213 24.7091 39.0043C24.3956 38.7957 24.1511 38.4987 24.0066 38.1509C23.8621 37.8032 23.8241 37.4204 23.8973 37.051C23.9706 36.6817 24.1518 36.3423 24.4181 36.0761C24.6844 35.8098 25.0237 35.6286 25.3931 35.5553C25.7624 35.4821 26.1452 35.5201 26.4929 35.6646C26.8407 35.8091 27.1377 36.0536 27.3464 36.3671C27.555 36.6805 27.6659 37.0489 27.6651 37.4254C27.6639 37.9283 27.4636 38.4103 27.108 38.7659C26.7524 39.1216 26.2704 39.3219 25.7674 39.323ZM33.3579 31.2383C33.3579 31.9815 33.0627 32.6943 32.5371 33.2198C32.0116 33.7454 31.2988 34.0406 30.5556 34.0406H20.9616C20.2184 34.0406 19.5056 33.7454 18.9801 33.2198C18.4546 32.6943 18.1593 31.9815 18.1593 31.2383V15.7264C18.1593 14.9832 18.4546 14.2704 18.9801 13.7449C19.5056 13.2193 20.2184 12.9241 20.9616 12.9241H30.5424C31.2856 12.9241 31.9984 13.2193 32.5239 13.7449C33.0494 14.2704 33.3447 14.9832 33.3447 15.7264L33.3579 31.2383Z" fill="#00B0B7"/>
<path d="M30.5469 12.9243H20.9573C19.4121 12.9243 18.1594 14.177 18.1594 15.7222V31.2385C18.1594 32.7838 19.4121 34.0364 20.9573 34.0364H30.5469C32.0921 34.0364 33.3448 32.7838 33.3448 31.2385V15.7222C33.3448 14.177 32.0921 12.9243 30.5469 12.9243Z" fill="#22DBE4"/>
<path d="M30.5469 12.9243H20.9573C19.4121 12.9243 18.1594 14.177 18.1594 15.7222V31.2385C18.1594 32.7838 19.4121 34.0364 20.9573 34.0364H30.5469C32.0921 34.0364 33.3448 32.7838 33.3448 31.2385V15.7222C33.3448 14.177 32.0921 12.9243 30.5469 12.9243Z" fill="url(#paint1_linear_81_329)"/>
<path d="M25.7543 39.3231C26.8023 39.3231 27.6519 38.4735 27.6519 37.4254C27.6519 36.3774 26.8023 35.5278 25.7543 35.5278C24.7063 35.5278 23.8567 36.3774 23.8567 37.4254C23.8567 38.4735 24.7063 39.3231 25.7543 39.3231Z" fill="white"/>
<path d="M27.3032 26.0046C27.4151 26.1007 27.5049 26.2198 27.5665 26.3539C27.6281 26.488 27.6599 26.6337 27.6599 26.7813C27.6599 26.9288 27.6281 27.0746 27.5665 27.2086C27.5049 27.3427 27.4151 27.4618 27.3032 27.558L25.0966 29.4467C25.0147 29.5171 24.914 29.5621 24.8069 29.5762C24.6997 29.5902 24.5909 29.5728 24.4935 29.526C24.3961 29.4792 24.3145 29.405 24.2586 29.3126C24.2027 29.2201 24.1749 29.1134 24.1787 29.0054V24.5306C24.1741 24.4218 24.2016 24.3141 24.2577 24.2207C24.3138 24.1274 24.3961 24.0526 24.4943 24.0056C24.5925 23.9586 24.7024 23.9415 24.8102 23.9564C24.9181 23.9713 25.0192 24.0175 25.101 24.0893L27.3032 26.0046Z" fill="white"/>
<path d="M24.7479 28.0256C23.7384 28.0308 22.7509 27.7299 21.9157 27.1627C21.0806 26.5955 20.4369 25.7886 20.0694 24.8483C19.702 23.9079 19.6281 22.8784 19.8574 21.8952C20.0868 20.912 20.6087 20.0214 21.3543 19.3407C21.5702 19.1429 21.8559 19.039 22.1484 19.0518C22.441 19.0647 22.7165 19.1932 22.9143 19.4091C23.1121 19.6251 23.216 19.9107 23.2032 20.2033C23.1903 20.4959 23.0618 20.7714 22.8459 20.9692C22.4282 21.3482 22.1353 21.8449 22.0058 22.3938C21.8762 22.9427 21.9161 23.518 22.1202 24.0438C22.3243 24.5695 22.683 25.0211 23.149 25.3388C23.6149 25.6565 24.1663 25.8255 24.7303 25.8235C25.0229 25.8235 25.3035 25.9398 25.5104 26.1467C25.7173 26.3536 25.8335 26.6342 25.8335 26.9268C25.8335 27.2194 25.7173 27.5 25.5104 27.7069C25.3035 27.9138 25.0229 28.0301 24.7303 28.0301L24.7479 28.0256Z" fill="white"/>
<path d="M24.2007 18.5373C24.0887 18.4408 23.9989 18.3212 23.9372 18.1868C23.8756 18.0524 23.8438 17.9062 23.8438 17.7584C23.8438 17.6105 23.8756 17.4644 23.9372 17.33C23.9989 17.1956 24.0887 17.076 24.2007 16.9795L26.4073 15.0951C26.4892 15.0247 26.5899 14.9798 26.697 14.9657C26.8041 14.9516 26.913 14.969 27.0104 15.0158C27.1078 15.0627 27.1894 15.1368 27.2453 15.2293C27.3012 15.3217 27.329 15.4284 27.3252 15.5364V20.0024C27.329 20.1104 27.3012 20.2171 27.2453 20.3096C27.1894 20.402 27.1078 20.4762 27.0104 20.523C26.913 20.5698 26.8041 20.5872 26.697 20.5731C26.5899 20.5591 26.4892 20.5141 26.4073 20.4437L24.2007 18.5373Z" fill="white"/>
<path d="M29.386 25.4835C29.1641 25.482 28.9477 25.4138 28.7649 25.2879C28.5822 25.1619 28.4415 24.9839 28.3611 24.777C28.2807 24.5701 28.2644 24.3438 28.3141 24.1275C28.3639 23.9112 28.4775 23.7148 28.6402 23.5638C29.0579 23.1848 29.3508 22.6881 29.4803 22.1392C29.6099 21.5903 29.57 21.015 29.3659 20.4892C29.1618 19.9635 28.8031 19.5119 28.3372 19.1942C27.8712 18.8764 27.3198 18.7074 26.7559 18.7095C26.4632 18.7095 26.1826 18.5932 25.9757 18.3863C25.7688 18.1794 25.6526 17.8988 25.6526 17.6062C25.6526 17.3136 25.7688 17.033 25.9757 16.8261C26.1826 16.6192 26.4632 16.5029 26.7559 16.5029C27.7639 16.5014 28.7488 16.8048 29.5813 17.3734C30.4137 17.9419 31.0546 18.749 31.4198 19.6886C31.7851 20.6281 31.8575 21.6562 31.6276 22.6377C31.3977 23.6192 30.8763 24.5082 30.1318 25.1878C29.9294 25.3769 29.663 25.4825 29.386 25.4835Z" fill="white"/>
</g>
<defs>
<linearGradient id="paint0_linear_81_329" x1="26" y1="0" x2="26" y2="52" gradientUnits="userSpaceOnUse">
<stop stop-color="#00B0B7"/>
<stop offset="1" stop-color="#00B0B7" stop-opacity="0"/>
</linearGradient>
<linearGradient id="paint1_linear_81_329" x1="16.3633" y1="18.1538" x2="35.1409" y2="28.8113" gradientUnits="userSpaceOnUse">
<stop stop-color="#3774BC"/>
<stop offset="0.21" stop-color="#3875BD" stop-opacity="0.98"/>
<stop offset="0.35" stop-color="#3A77C0" stop-opacity="0.93"/>
<stop offset="0.49" stop-color="#3E7AC6" stop-opacity="0.85"/>
<stop offset="0.61" stop-color="#4380CE" stop-opacity="0.73"/>
<stop offset="0.72" stop-color="#4A86D8" stop-opacity="0.58"/>
<stop offset="0.83" stop-color="#538EE4" stop-opacity="0.39"/>
<stop offset="0.93" stop-color="#5D98F3" stop-opacity="0.17"/>
<stop offset="1" stop-color="#659FFE" stop-opacity="0"/>
</linearGradient>
<clipPath id="clip0_81_329">
<rect width="18.504" height="30" fill="white" transform="translate(16.5 11)"/>
</clipPath>
</defs>
</svg>
